<svg version="1.2" baseProfile="tiny-ps" xmlns="http://www.w3.org/2000/svg" viewBox="0 0 122 32" width="122" height="32">
	<title>logo-svg</title>
	<style>
		tspan { white-space:pre }
		.txt0 { font-size: 18px;fill: #000000;font-weight: 400;font-family: "DejaVuSans", "DejaVu Sans" } 
		.shp1 { fill: #6493ff } 
		.shp2 { fill: #3155a7 } 
	</style>
	<g id="Page-1">
		<g id="majestic">
			<text id="Inventory " style="transform: matrix(1,0,0,1,37,24)" >
				<tspan x="0" y="0" class="txt0">Inventory</tspan>
			</text>
			<g id="Group-5">
				<path id="Rectangle" class="shp1" d="M8.76 0.62L10.71 1.04C12.34 1.38 13.37 2.97 13.02 4.6L8.45 26.12C8.1 27.74 6.51 28.77 4.89 28.43L2.93 28.01C1.31 27.67 0.28 26.08 0.62 24.45L5.2 2.93C5.54 1.31 7.13 0.28 8.76 0.62Z" />
				<path id="Rectangle-Copy" fill-rule="evenodd" class="shp2" d="M19.7 5.42L21.67 5.52C23.31 5.6 24.43 6.54 24.18 7.62L19.7 26.52C19.45 27.6 17.58 28.44 15.95 28.35L13.97 28.26C12.34 28.17 11.22 27.23 11.47 26.15L16.29 7.23C16.54 6.15 18.07 5.34 19.7 5.42Z" />
				<path id="Rectangle-Copy-2" fill-rule="evenodd" class="shp1" d="M29.6 6.86L31.55 7.29C33.17 7.64 34.18 9.15 33.81 10.66L29.93 27.08C29.56 28.59 27.95 29.53 26.33 29.18L24.38 28.75C22.77 28.4 21.76 26.89 22.13 25.38L26.01 8.97C26.38 7.45 27.99 6.51 29.6 6.86Z" />
				<path id="Path-2" fill-rule="evenodd" class="shp1" d="M8.83 0.5L23.04 4.83C24.07 5.14 24.67 6.21 24.39 7.25L23.03 12.41L4.47 6.78L5.53 2.18C5.83 0.88 7.13 0.07 8.43 0.37C8.57 0.4 8.7 0.44 8.83 0.5Z" />
				<path id="Oval" class="shp1" d="M34.5 32C32.56 32 31 30.44 31 28.5C31 26.56 32.56 25 34.5 25C36.44 25 38 26.56 38 28.5C38 30.44 36.44 32 34.5 32Z" />
			</g>
		</g>
	</g>
</svg>